<svg width="1000" height="1000" xmlns="http://www.w3.org/2000/svg" version="1.1">


<!-- internal style sheet -->
<style type="text/css"><![CDATA[
 rect.background{fill:white}
 rect{fill:none; stroke:rgb(25,25,25); stroke-width:2}
 text{font-family:Helvetica; text-anchor:middle; fill:rgb(25,25,25)}
 line{stroke:rgb(25,25,25); stroke-width:4}
 path{fill:none; stroke:rgb(25,25,25); stroke-width:2}
 circle{fill:white; stroke:black; stroke-width:2}

 path.p0{fill:rgb(0,102,255); stroke:rgb(25,25,25); stroke-width:2}
 path.ps0{fill:rgb(0,77,191); stroke:rgb(20,20,20); stroke-width:2}
 rect.r0{fill:rgb(0,102,255); stroke:rgb(25,25,25); stroke-width:2}
 path.p1{fill:rgb(0,255,178); stroke:rgb(25,25,25); stroke-width:2}
 path.ps1{fill:rgb(0,191,134); stroke:rgb(20,20,20); stroke-width:2}
 rect.r1{fill:rgb(0,255,178); stroke:rgb(25,25,25); stroke-width:2}
 path.p2{fill:rgb(51,255,0); stroke:rgb(25,25,25); stroke-width:2}
 path.ps2{fill:rgb(38,191,0); stroke:rgb(20,20,20); stroke-width:2}
 rect.r2{fill:rgb(51,255,0); stroke:rgb(25,25,25); stroke-width:2}
 path.p3{fill:rgb(255,230,0); stroke:rgb(25,25,25); stroke-width:2}
 path.ps3{fill:rgb(191,173,0); stroke:rgb(20,20,20); stroke-width:2}
 rect.r3{fill:rgb(255,230,0); stroke:rgb(25,25,25); stroke-width:2}
 path.p4{fill:rgb(255,0,0); stroke:rgb(25,25,25); stroke-width:2}
 path.ps4{fill:rgb(191,0,0); stroke:rgb(20,20,20); stroke-width:2}
 rect.r4{fill:rgb(255,0,0); stroke:rgb(25,25,25); stroke-width:2}
]]></style>

 <rect class="background" width="1000" height="1000"/>
  <!-- cells -->
  <path class="p1" d="M 920 500 L 899 370 L 800 403 L 815 500 L 920 500"/>
  <line x1="920" y1="500" x2="899" y2="370"/>
  <path class="p1" d="M 899 370 L 840 253 L 755 315 L 800 403 L 899 370"/>
  <line x1="899" y1="370" x2="840" y2="253"/>
  <path class="p1" d="M 840 253 L 747 160 L 685 245 L 755 315 L 840 253"/>
  <line x1="840" y1="253" x2="747" y2="160"/>
  <path class="p1" d="M 747 160 L 630 101 L 597 200 L 685 245 L 747 160"/>
  <line x1="747" y1="160" x2="630" y2="101"/>
  <path class="p1" d="M 630 101 L 500 80 L 500 185 L 597 200 L 630 101"/>
  <line x1="630" y1="101" x2="500" y2="80"/>
  <path class="p1" d="M 500 80 L 370 101 L 403 200 L 500 185 L 500 80"/>
  <line x1="500" y1="80" x2="370" y2="101"/>
  <path class="p1" d="M 370 101 L 253 160 L 315 245 L 403 200 L 370 101"/>
  <line x1="370" y1="101" x2="253" y2="160"/>
  <path class="p1" d="M 253 160 L 160 253 L 245 315 L 315 245 L 253 160"/>
  <line x1="253" y1="160" x2="160" y2="253"/>
  <path class="p1" d="M 160 253 L 101 370 L 200 403 L 245 315 L 160 253"/>
  <line x1="160" y1="253" x2="101" y2="370"/>
  <path class="p1" d="M 101 370 L 80 500 L 185 500 L 200 403 L 101 370"/>
  <line x1="101" y1="370" x2="80" y2="500"/>
  <path class="p1" d="M 80 500 L 101 630 L 200 597 L 185 500 L 80 500"/>
  <line x1="80" y1="500" x2="101" y2="630"/>
  <path class="p1" d="M 101 630 L 160 747 L 245 685 L 200 597 L 101 630"/>
  <line x1="101" y1="630" x2="160" y2="747"/>
  <path class="p1" d="M 160 747 L 253 840 L 315 755 L 245 685 L 160 747"/>
  <line x1="160" y1="747" x2="253" y2="840"/>
  <path class="p1" d="M 253 840 L 370 899 L 403 800 L 315 755 L 253 840"/>
  <line x1="253" y1="840" x2="370" y2="899"/>
  <path class="p1" d="M 370 899 L 500 920 L 500 815 L 403 800 L 370 899"/>
  <line x1="370" y1="899" x2="500" y2="920"/>
  <path class="p1" d="M 500 920 L 630 899 L 597 800 L 500 815 L 500 920"/>
  <line x1="500" y1="920" x2="630" y2="899"/>
  <path class="p1" d="M 630 899 L 747 840 L 685 755 L 597 800 L 630 899"/>
  <line x1="630" y1="899" x2="747" y2="840"/>
  <path class="p1" d="M 747 840 L 840 747 L 755 685 L 685 755 L 747 840"/>
  <line x1="747" y1="840" x2="840" y2="747"/>
  <path class="p1" d="M 840 747 L 899 630 L 800 597 L 755 685 L 840 747"/>
  <line x1="840" y1="747" x2="899" y2="630"/>
  <path class="p1" d="M 899 630 L 920 500 L 815 500 L 800 597 L 899 630"/>
  <line x1="899" y1="630" x2="920" y2="500"/>
  <path class="p2" d="M 815 500 L 811 451 L 759 459 L 763 500 L 815 500"/>
  <path class="p2" d="M 811 451 L 800 403 L 750 419 L 759 459 L 811 451"/>
  <path class="p2" d="M 800 403 L 781 357 L 734 381 L 750 419 L 800 403"/>
  <path class="p2" d="M 781 357 L 755 315 L 712 346 L 734 381 L 781 357"/>
  <path class="p2" d="M 755 315 L 723 277 L 686 314 L 712 346 L 755 315"/>
  <path class="p2" d="M 723 277 L 685 245 L 654 288 L 686 314 L 723 277"/>
  <path class="p2" d="M 685 245 L 643 219 L 619 266 L 654 288 L 685 245"/>
  <path class="p2" d="M 643 219 L 597 200 L 581 250 L 619 266 L 643 219"/>
  <path class="p2" d="M 597 200 L 549 189 L 541 241 L 581 250 L 597 200"/>
  <path class="p2" d="M 549 189 L 500 185 L 500 238 L 541 241 L 549 189"/>
  <path class="p2" d="M 500 185 L 451 189 L 459 241 L 500 238 L 500 185"/>
  <path class="p2" d="M 451 189 L 403 200 L 419 250 L 459 241 L 451 189"/>
  <path class="p2" d="M 403 200 L 357 219 L 381 266 L 419 250 L 403 200"/>
  <path class="p2" d="M 357 219 L 315 245 L 346 288 L 381 266 L 357 219"/>
  <path class="p2" d="M 315 245 L 277 277 L 314 314 L 346 288 L 315 245"/>
  <path class="p2" d="M 277 277 L 245 315 L 288 346 L 314 314 L 277 277"/>
  <path class="p2" d="M 245 315 L 219 357 L 266 381 L 288 346 L 245 315"/>
  <path class="p2" d="M 219 357 L 200 403 L 250 419 L 266 381 L 219 357"/>
  <path class="p2" d="M 200 403 L 189 451 L 241 459 L 250 419 L 200 403"/>
  <path class="p2" d="M 189 451 L 185 500 L 238 500 L 241 459 L 189 451"/>
  <path class="p2" d="M 185 500 L 189 549 L 241 541 L 238 500 L 185 500"/>
  <path class="p2" d="M 189 549 L 200 597 L 250 581 L 241 541 L 189 549"/>
  <path class="p2" d="M 200 597 L 219 643 L 266 619 L 250 581 L 200 597"/>
  <path class="p2" d="M 219 643 L 245 685 L 288 654 L 266 619 L 219 643"/>
  <path class="p2" d="M 245 685 L 277 723 L 314 686 L 288 654 L 245 685"/>
  <path class="p2" d="M 277 723 L 315 755 L 346 712 L 314 686 L 277 723"/>
  <path class="p2" d="M 315 755 L 357 781 L 381 734 L 346 712 L 315 755"/>
  <path class="p2" d="M 357 781 L 403 800 L 419 750 L 381 734 L 357 781"/>
  <path class="p2" d="M 403 800 L 451 811 L 459 759 L 419 750 L 403 800"/>
  <path class="p2" d="M 451 811 L 500 815 L 500 763 L 459 759 L 451 811"/>
  <path class="p2" d="M 500 815 L 549 811 L 541 759 L 500 763 L 500 815"/>
  <path class="p2" d="M 549 811 L 597 800 L 581 750 L 541 759 L 549 811"/>
  <path class="p2" d="M 597 800 L 643 781 L 619 734 L 581 750 L 597 800"/>
  <path class="p2" d="M 643 781 L 685 755 L 654 712 L 619 734 L 643 781"/>
  <path class="p2" d="M 685 755 L 723 723 L 686 686 L 654 712 L 685 755"/>
  <path class="p2" d="M 723 723 L 755 685 L 712 654 L 686 686 L 723 723"/>
  <path class="p2" d="M 755 685 L 781 643 L 734 619 L 712 654 L 755 685"/>
  <path class="p2" d="M 781 643 L 800 597 L 750 581 L 734 619 L 781 643"/>
  <path class="p2" d="M 800 597 L 811 549 L 759 541 L 750 581 L 800 597"/>
  <path class="p2" d="M 811 549 L 815 500 L 763 500 L 759 541 L 811 549"/>
  <path class="p3" d="M 763 500 L 762 479 L 736 481 L 736 500 L 763 500"/>
  <path class="p3" d="M 762 479 L 759 459 L 733 463 L 736 481 L 762 479"/>
  <path class="p3" d="M 759 459 L 755 439 L 730 445 L 733 463 L 759 459"/>
  <path class="p3" d="M 755 439 L 750 419 L 725 427 L 730 445 L 755 439"/>
  <path class="p3" d="M 750 419 L 743 400 L 718 410 L 725 427 L 750 419"/>
  <path class="p3" d="M 743 400 L 734 381 L 711 393 L 718 410 L 743 400"/>
  <path class="p3" d="M 734 381 L 724 363 L 701 377 L 711 393 L 734 381"/>
  <path class="p3" d="M 724 363 L 712 346 L 691 361 L 701 377 L 724 363"/>
  <path class="p3" d="M 712 346 L 700 330 L 680 347 L 691 361 L 712 346"/>
  <path class="p3" d="M 700 330 L 686 314 L 667 333 L 680 347 L 700 330"/>
  <path class="p3" d="M 686 314 L 670 300 L 653 320 L 667 333 L 686 314"/>
  <path class="p3" d="M 670 300 L 654 288 L 639 309 L 653 320 L 670 300"/>
  <path class="p3" d="M 654 288 L 637 276 L 623 299 L 639 309 L 654 288"/>
  <path class="p3" d="M 637 276 L 619 266 L 607 289 L 623 299 L 637 276"/>
  <path class="p3" d="M 619 266 L 600 257 L 590 282 L 607 289 L 619 266"/>
  <path class="p3" d="M 600 257 L 581 250 L 573 275 L 590 282 L 600 257"/>
  <path class="p3" d="M 581 250 L 561 245 L 555 270 L 573 275 L 581 250"/>
  <path class="p3" d="M 561 245 L 541 241 L 537 267 L 555 270 L 561 245"/>
  <path class="p3" d="M 541 241 L 521 238 L 519 264 L 537 267 L 541 241"/>
  <path class="p3" d="M 521 238 L 500 238 L 500 264 L 519 264 L 521 238"/>
  <path class="p3" d="M 500 238 L 479 238 L 481 264 L 500 264 L 500 238"/>
  <path class="p3" d="M 479 238 L 459 241 L 463 267 L 481 264 L 479 238"/>
  <path class="p3" d="M 459 241 L 439 245 L 445 270 L 463 267 L 459 241"/>
  <path class="p3" d="M 439 245 L 419 250 L 427 275 L 445 270 L 439 245"/>
  <path class="p3" d="M 419 250 L 400 257 L 410 282 L 427 275 L 419 250"/>
  <path class="p3" d="M 400 257 L 381 266 L 393 289 L 410 282 L 400 257"/>
  <path class="p3" d="M 381 266 L 363 276 L 377 299 L 393 289 L 381 266"/>
  <path class="p3" d="M 363 276 L 346 288 L 361 309 L 377 299 L 363 276"/>
  <path class="p3" d="M 346 288 L 330 300 L 347 320 L 361 309 L 346 288"/>
  <path class="p3" d="M 330 300 L 314 314 L 333 333 L 347 320 L 330 300"/>
  <path class="p3" d="M 314 314 L 300 330 L 320 347 L 333 333 L 314 314"/>
  <path class="p3" d="M 300 330 L 288 346 L 309 361 L 320 347 L 300 330"/>
  <path class="p3" d="M 288 346 L 276 363 L 299 377 L 309 361 L 288 346"/>
  <path class="p3" d="M 276 363 L 266 381 L 289 393 L 299 377 L 276 363"/>
  <path class="p3" d="M 266 381 L 257 400 L 282 410 L 289 393 L 266 381"/>
  <path class="p3" d="M 257 400 L 250 419 L 275 427 L 282 410 L 257 400"/>
  <path class="p3" d="M 250 419 L 245 439 L 270 445 L 275 427 L 250 419"/>
  <path class="p3" d="M 245 439 L 241 459 L 267 463 L 270 445 L 245 439"/>
  <path class="p3" d="M 241 459 L 238 479 L 264 481 L 267 463 L 241 459"/>
  <path class="p3" d="M 238 479 L 238 500 L 264 500 L 264 481 L 238 479"/>
  <path class="p3" d="M 238 500 L 238 521 L 264 519 L 264 500 L 238 500"/>
  <path class="p3" d="M 238 521 L 241 541 L 267 537 L 264 519 L 238 521"/>
  <path class="p3" d="M 241 541 L 245 561 L 270 555 L 267 537 L 241 541"/>
  <path class="p3" d="M 245 561 L 250 581 L 275 573 L 270 555 L 245 561"/>
  <path class="p3" d="M 250 581 L 257 600 L 282 590 L 275 573 L 250 581"/>
  <path class="p3" d="M 257 600 L 266 619 L 289 607 L 282 590 L 257 600"/>
  <path class="p3" d="M 266 619 L 276 637 L 299 623 L 289 607 L 266 619"/>
  <path class="p3" d="M 276 637 L 288 654 L 309 639 L 299 623 L 276 637"/>
  <path class="p3" d="M 288 654 L 300 670 L 320 653 L 309 639 L 288 654"/>
  <path class="p3" d="M 300 670 L 314 686 L 333 667 L 320 653 L 300 670"/>
  <path class="p3" d="M 314 686 L 330 700 L 347 680 L 333 667 L 314 686"/>
  <path class="p3" d="M 330 700 L 346 712 L 361 691 L 347 680 L 330 700"/>
  <path class="p3" d="M 346 712 L 363 724 L 377 701 L 361 691 L 346 712"/>
  <path class="p3" d="M 363 724 L 381 734 L 393 711 L 377 701 L 363 724"/>
  <path class="p3" d="M 381 734 L 400 743 L 410 718 L 393 711 L 381 734"/>
  <path class="p3" d="M 400 743 L 419 750 L 427 725 L 410 718 L 400 743"/>
  <path class="p3" d="M 419 750 L 439 755 L 445 730 L 427 725 L 419 750"/>
  <path class="p3" d="M 439 755 L 459 759 L 463 733 L 445 730 L 439 755"/>
  <path class="p3" d="M 459 759 L 479 762 L 481 736 L 463 733 L 459 759"/>
  <path class="p3" d="M 479 762 L 500 763 L 500 736 L 481 736 L 479 762"/>
  <path class="p3" d="M 500 763 L 521 762 L 519 736 L 500 736 L 500 763"/>
  <path class="p3" d="M 521 762 L 541 759 L 537 733 L 519 736 L 521 762"/>
  <path class="p3" d="M 541 759 L 561 755 L 555 730 L 537 733 L 541 759"/>
  <path class="p3" d="M 561 755 L 581 750 L 573 725 L 555 730 L 561 755"/>
  <path class="p3" d="M 581 750 L 600 743 L 590 718 L 573 725 L 581 750"/>
  <path class="p3" d="M 600 743 L 619 734 L 607 711 L 590 718 L 600 743"/>
  <path class="p3" d="M 619 734 L 637 724 L 623 701 L 607 711 L 619 734"/>
  <path class="p3" d="M 637 724 L 654 712 L 639 691 L 623 701 L 637 724"/>
  <path class="p3" d="M 654 712 L 670 700 L 653 680 L 639 691 L 654 712"/>
  <path class="p3" d="M 670 700 L 686 686 L 667 667 L 653 680 L 670 700"/>
  <path class="p3" d="M 686 686 L 700 670 L 680 653 L 667 667 L 686 686"/>
  <path class="p3" d="M 700 670 L 712 654 L 691 639 L 680 653 L 700 670"/>
  <path class="p3" d="M 712 654 L 724 637 L 701 623 L 691 639 L 712 654"/>
  <path class="p3" d="M 724 637 L 734 619 L 711 607 L 701 623 L 724 637"/>
  <path class="p3" d="M 734 619 L 743 600 L 718 590 L 711 607 L 734 619"/>
  <path class="p3" d="M 743 600 L 750 581 L 725 573 L 718 590 L 743 600"/>
  <path class="p3" d="M 750 581 L 755 561 L 730 555 L 725 573 L 750 581"/>
  <path class="p3" d="M 755 561 L 759 541 L 733 537 L 730 555 L 755 561"/>
  <path class="p3" d="M 759 541 L 762 521 L 736 519 L 733 537 L 759 541"/>
  <path class="p3" d="M 762 521 L 763 500 L 736 500 L 736 519 L 762 521"/>
  <path class="p4" d="M 736 500 L 736 491 L 723 491 L 723 500 L 736 500"/>
  <path class="p4" d="M 736 491 L 736 481 L 722 482 L 723 491 L 736 491"/>
  <path class="p4" d="M 723 500 L 723 491 L 710 492 L 710 500 L 723 500"/>
  <line x1="710" y1="500" x2="710" y2="492"/>
  <path class="p4" d="M 723 491 L 722 482 L 709 484 L 710 492 L 723 491"/>
  <line x1="710" y1="492" x2="709" y2="484"/>
  <path class="p4" d="M 736 481 L 735 472 L 722 474 L 722 482 L 736 481"/>
  <path class="p4" d="M 735 472 L 733 463 L 720 465 L 722 474 L 735 472"/>
  <path class="p4" d="M 722 482 L 722 474 L 709 475 L 709 484 L 722 482"/>
  <line x1="709" y1="484" x2="709" y2="475"/>
  <path class="p4" d="M 722 474 L 720 465 L 707 467 L 709 475 L 722 474"/>
  <line x1="709" y1="475" x2="707" y2="467"/>
  <path class="p4" d="M 733 463 L 732 454 L 719 456 L 720 465 L 733 463"/>
  <path class="p4" d="M 732 454 L 730 445 L 717 448 L 719 456 L 732 454"/>
  <path class="p4" d="M 720 465 L 719 456 L 706 459 L 707 467 L 720 465"/>
  <line x1="707" y1="467" x2="706" y2="459"/>
  <path class="p4" d="M 719 456 L 717 448 L 704 451 L 706 459 L 719 456"/>
  <line x1="706" y1="459" x2="704" y2="451"/>
  <path class="p4" d="M 730 445 L 727 436 L 715 439 L 717 448 L 730 445"/>
  <path class="p4" d="M 727 436 L 725 427 L 712 431 L 715 439 L 727 436"/>
  <path class="p4" d="M 717 448 L 715 439 L 702 443 L 704 451 L 717 448"/>
  <line x1="704" y1="451" x2="702" y2="443"/>
  <path class="p4" d="M 715 439 L 712 431 L 700 435 L 702 443 L 715 439"/>
  <line x1="702" y1="443" x2="700" y2="435"/>
  <path class="p4" d="M 725 427 L 722 418 L 709 423 L 712 431 L 725 427"/>
  <path class="p4" d="M 722 418 L 718 410 L 706 415 L 709 423 L 722 418"/>
  <path class="p4" d="M 712 431 L 709 423 L 697 427 L 700 435 L 712 431"/>
  <line x1="700" y1="435" x2="697" y2="427"/>
  <path class="p4" d="M 709 423 L 706 415 L 694 420 L 697 427 L 709 423"/>
  <line x1="697" y1="427" x2="694" y2="420"/>
  <path class="p4" d="M 718 410 L 715 401 L 703 407 L 706 415 L 718 410"/>
  <path class="p4" d="M 715 401 L 711 393 L 699 399 L 703 407 L 715 401"/>
  <path class="p4" d="M 706 415 L 703 407 L 691 412 L 694 420 L 706 415"/>
  <line x1="694" y1="420" x2="691" y2="412"/>
  <path class="p4" d="M 703 407 L 699 399 L 687 405 L 691 412 L 703 407"/>
  <line x1="691" y1="412" x2="687" y2="405"/>
  <path class="p4" d="M 711 393 L 706 385 L 695 391 L 699 399 L 711 393"/>
  <path class="p4" d="M 706 385 L 701 377 L 690 383 L 695 391 L 706 385"/>
  <path class="p4" d="M 699 399 L 695 391 L 683 397 L 687 405 L 699 399"/>
  <line x1="687" y1="405" x2="683" y2="397"/>
  <path class="p4" d="M 695 391 L 690 383 L 679 390 L 683 397 L 695 391"/>
  <line x1="683" y1="397" x2="679" y2="390"/>
  <path class="p4" d="M 701 377 L 696 369 L 686 376 L 690 383 L 701 377"/>
  <path class="p4" d="M 696 369 L 691 361 L 681 369 L 686 376 L 696 369"/>
  <path class="p4" d="M 690 383 L 686 376 L 675 383 L 679 390 L 690 383"/>
  <line x1="679" y1="390" x2="675" y2="383"/>
  <path class="p4" d="M 686 376 L 681 369 L 670 377 L 675 383 L 686 376"/>
  <line x1="675" y1="383" x2="670" y2="377"/>
  <path class="p4" d="M 691 361 L 686 354 L 675 362 L 681 369 L 691 361"/>
  <path class="p4" d="M 686 354 L 680 347 L 670 355 L 675 362 L 686 354"/>
  <path class="p4" d="M 681 369 L 675 362 L 665 370 L 670 377 L 681 369"/>
  <line x1="670" y1="377" x2="665" y2="370"/>
  <path class="p4" d="M 675 362 L 670 355 L 660 364 L 665 370 L 675 362"/>
  <line x1="665" y1="370" x2="660" y2="364"/>
  <path class="p4" d="M 680 347 L 673 340 L 664 349 L 670 355 L 680 347"/>
  <path class="p4" d="M 673 340 L 667 333 L 658 342 L 664 349 L 673 340"/>
  <path class="p4" d="M 670 355 L 664 349 L 654 357 L 660 364 L 670 355"/>
  <line x1="660" y1="364" x2="654" y2="357"/>
  <path class="p4" d="M 664 349 L 658 342 L 648 352 L 654 357 L 664 349"/>
  <line x1="654" y1="357" x2="648" y2="352"/>
  <path class="p4" d="M 667 333 L 660 327 L 651 336 L 658 342 L 667 333"/>
  <path class="p4" d="M 660 327 L 653 320 L 645 330 L 651 336 L 660 327"/>
  <path class="p4" d="M 658 342 L 651 336 L 643 346 L 648 352 L 658 342"/>
  <line x1="648" y1="352" x2="643" y2="346"/>
  <path class="p4" d="M 651 336 L 645 330 L 636 340 L 643 346 L 651 336"/>
  <line x1="643" y1="346" x2="636" y2="340"/>
  <path class="p4" d="M 653 320 L 646 314 L 638 325 L 645 330 L 653 320"/>
  <path class="p4" d="M 646 314 L 639 309 L 631 319 L 638 325 L 646 314"/>
  <path class="p4" d="M 645 330 L 638 325 L 630 335 L 636 340 L 645 330"/>
  <line x1="636" y1="340" x2="630" y2="335"/>
  <path class="p4" d="M 638 325 L 631 319 L 623 330 L 630 335 L 638 325"/>
  <line x1="630" y1="335" x2="623" y2="330"/>
  <path class="p4" d="M 639 309 L 631 304 L 624 314 L 631 319 L 639 309"/>
  <path class="p4" d="M 631 304 L 623 299 L 617 310 L 624 314 L 631 304"/>
  <path class="p4" d="M 631 319 L 624 314 L 617 325 L 623 330 L 631 319"/>
  <line x1="623" y1="330" x2="617" y2="325"/>
  <path class="p4" d="M 624 314 L 617 310 L 610 321 L 617 325 L 624 314"/>
  <line x1="617" y1="325" x2="610" y2="321"/>
  <path class="p4" d="M 623 299 L 615 294 L 609 305 L 617 310 L 623 299"/>
  <path class="p4" d="M 615 294 L 607 289 L 601 301 L 609 305 L 615 294"/>
  <path class="p4" d="M 617 310 L 609 305 L 603 317 L 610 321 L 617 310"/>
  <line x1="610" y1="321" x2="603" y2="317"/>
  <path class="p4" d="M 609 305 L 601 301 L 595 313 L 603 317 L 609 305"/>
  <line x1="603" y1="317" x2="595" y2="313"/>
  <path class="p4" d="M 607 289 L 599 285 L 593 297 L 601 301 L 607 289"/>
  <path class="p4" d="M 599 285 L 590 282 L 585 294 L 593 297 L 599 285"/>
  <path class="p4" d="M 601 301 L 593 297 L 588 309 L 595 313 L 601 301"/>
  <line x1="595" y1="313" x2="588" y2="309"/>
  <path class="p4" d="M 593 297 L 585 294 L 580 306 L 588 309 L 593 297"/>
  <line x1="588" y1="309" x2="580" y2="306"/>
  <path class="p4" d="M 590 282 L 582 278 L 577 291 L 585 294 L 590 282"/>
  <path class="p4" d="M 582 278 L 573 275 L 569 288 L 577 291 L 582 278"/>
  <path class="p4" d="M 585 294 L 577 291 L 573 303 L 580 306 L 585 294"/>
  <line x1="580" y1="306" x2="573" y2="303"/>
  <path class="p4" d="M 577 291 L 569 288 L 565 300 L 573 303 L 577 291"/>
  <line x1="573" y1="303" x2="565" y2="300"/>
  <path class="p4" d="M 573 275 L 564 273 L 561 285 L 569 288 L 573 275"/>
  <path class="p4" d="M 564 273 L 555 270 L 552 283 L 561 285 L 564 273"/>
  <path class="p4" d="M 569 288 L 561 285 L 557 298 L 565 300 L 569 288"/>
  <line x1="565" y1="300" x2="557" y2="298"/>
  <path class="p4" d="M 561 285 L 552 283 L 549 296 L 557 298 L 561 285"/>
  <line x1="557" y1="298" x2="549" y2="296"/>
  <path class="p4" d="M 555 270 L 546 268 L 544 281 L 552 283 L 555 270"/>
  <path class="p4" d="M 546 268 L 537 267 L 535 280 L 544 281 L 546 268"/>
  <path class="p4" d="M 552 283 L 544 281 L 541 294 L 549 296 L 552 283"/>
  <line x1="549" y1="296" x2="541" y2="294"/>
  <path class="p4" d="M 544 281 L 535 280 L 533 293 L 541 294 L 544 281"/>
  <line x1="541" y1="294" x2="533" y2="293"/>
  <path class="p4" d="M 537 267 L 528 265 L 526 278 L 535 280 L 537 267"/>
  <path class="p4" d="M 528 265 L 519 264 L 518 278 L 526 278 L 528 265"/>
  <path class="p4" d="M 535 280 L 526 278 L 525 291 L 533 293 L 535 280"/>
  <line x1="533" y1="293" x2="525" y2="291"/>
  <path class="p4" d="M 526 278 L 518 278 L 516 291 L 525 291 L 526 278"/>
  <line x1="525" y1="291" x2="516" y2="291"/>
  <path class="p4" d="M 519 264 L 509 264 L 509 277 L 518 278 L 519 264"/>
  <path class="p4" d="M 509 264 L 500 264 L 500 277 L 509 277 L 509 264"/>
  <path class="p4" d="M 518 278 L 509 277 L 508 290 L 516 291 L 518 278"/>
  <line x1="516" y1="291" x2="508" y2="290"/>
  <path class="p4" d="M 509 277 L 500 277 L 500 290 L 508 290 L 509 277"/>
  <line x1="508" y1="290" x2="500" y2="290"/>
  <path class="p4" d="M 500 264 L 491 264 L 491 277 L 500 277 L 500 264"/>
  <path class="p4" d="M 491 264 L 481 264 L 482 278 L 491 277 L 491 264"/>
  <path class="p4" d="M 500 277 L 491 277 L 492 290 L 500 290 L 500 277"/>
  <line x1="500" y1="290" x2="492" y2="290"/>
  <path class="p4" d="M 491 277 L 482 278 L 484 291 L 492 290 L 491 277"/>
  <line x1="492" y1="290" x2="484" y2="291"/>
  <path class="p4" d="M 481 264 L 472 265 L 474 278 L 482 278 L 481 264"/>
  <path class="p4" d="M 472 265 L 463 267 L 465 280 L 474 278 L 472 265"/>
  <path class="p4" d="M 482 278 L 474 278 L 475 291 L 484 291 L 482 278"/>
  <line x1="484" y1="291" x2="475" y2="291"/>
  <path class="p4" d="M 474 278 L 465 280 L 467 293 L 475 291 L 474 278"/>
  <line x1="475" y1="291" x2="467" y2="293"/>
  <path class="p4" d="M 463 267 L 454 268 L 456 281 L 465 280 L 463 267"/>
  <path class="p4" d="M 454 268 L 445 270 L 448 283 L 456 281 L 454 268"/>
  <path class="p4" d="M 465 280 L 456 281 L 459 294 L 467 293 L 465 280"/>
  <line x1="467" y1="293" x2="459" y2="294"/>
  <path class="p4" d="M 456 281 L 448 283 L 451 296 L 459 294 L 456 281"/>
  <line x1="459" y1="294" x2="451" y2="296"/>
  <path class="p4" d="M 445 270 L 436 273 L 439 285 L 448 283 L 445 270"/>
  <path class="p4" d="M 436 273 L 427 275 L 431 288 L 439 285 L 436 273"/>
  <path class="p4" d="M 448 283 L 439 285 L 443 298 L 451 296 L 448 283"/>
  <line x1="451" y1="296" x2="443" y2="298"/>
  <path class="p4" d="M 439 285 L 431 288 L 435 300 L 443 298 L 439 285"/>
  <line x1="443" y1="298" x2="435" y2="300"/>
  <path class="p4" d="M 427 275 L 418 278 L 423 291 L 431 288 L 427 275"/>
  <path class="p4" d="M 418 278 L 410 282 L 415 294 L 423 291 L 418 278"/>
  <path class="p4" d="M 431 288 L 423 291 L 427 303 L 435 300 L 431 288"/>
  <line x1="435" y1="300" x2="427" y2="303"/>
  <path class="p4" d="M 423 291 L 415 294 L 420 306 L 427 303 L 423 291"/>
  <line x1="427" y1="303" x2="420" y2="306"/>
  <path class="p4" d="M 410 282 L 401 285 L 407 297 L 415 294 L 410 282"/>
  <path class="p4" d="M 401 285 L 393 289 L 399 301 L 407 297 L 401 285"/>
  <path class="p4" d="M 415 294 L 407 297 L 412 309 L 420 306 L 415 294"/>
  <line x1="420" y1="306" x2="412" y2="309"/>
  <path class="p4" d="M 407 297 L 399 301 L 405 313 L 412 309 L 407 297"/>
  <line x1="412" y1="309" x2="405" y2="313"/>
  <path class="p4" d="M 393 289 L 385 294 L 391 305 L 399 301 L 393 289"/>
  <path class="p4" d="M 385 294 L 377 299 L 383 310 L 391 305 L 385 294"/>
  <path class="p4" d="M 399 301 L 391 305 L 397 317 L 405 313 L 399 301"/>
  <line x1="405" y1="313" x2="397" y2="317"/>
  <path class="p4" d="M 391 305 L 383 310 L 390 321 L 397 317 L 391 305"/>
  <line x1="397" y1="317" x2="390" y2="321"/>
  <path class="p4" d="M 377 299 L 369 304 L 376 314 L 383 310 L 377 299"/>
  <path class="p4" d="M 369 304 L 361 309 L 369 319 L 376 314 L 369 304"/>
  <path class="p4" d="M 383 310 L 376 314 L 383 325 L 390 321 L 383 310"/>
  <line x1="390" y1="321" x2="383" y2="325"/>
  <path class="p4" d="M 376 314 L 369 319 L 377 330 L 383 325 L 376 314"/>
  <line x1="383" y1="325" x2="377" y2="330"/>
  <path class="p4" d="M 361 309 L 354 314 L 362 325 L 369 319 L 361 309"/>
  <path class="p4" d="M 354 314 L 347 320 L 355 330 L 362 325 L 354 314"/>
  <path class="p4" d="M 369 319 L 362 325 L 370 335 L 377 330 L 369 319"/>
  <line x1="377" y1="330" x2="370" y2="335"/>
  <path class="p4" d="M 362 325 L 355 330 L 364 340 L 370 335 L 362 325"/>
  <line x1="370" y1="335" x2="364" y2="340"/>
  <path class="p4" d="M 347 320 L 340 327 L 349 336 L 355 330 L 347 320"/>
  <path class="p4" d="M 340 327 L 333 333 L 342 342 L 349 336 L 340 327"/>
  <path class="p4" d="M 355 330 L 349 336 L 357 346 L 364 340 L 355 330"/>
  <line x1="364" y1="340" x2="357" y2="346"/>
  <path class="p4" d="M 349 336 L 342 342 L 352 352 L 357 346 L 349 336"/>
  <line x1="357" y1="346" x2="352" y2="352"/>
  <path class="p4" d="M 333 333 L 327 340 L 336 349 L 342 342 L 333 333"/>
  <path class="p4" d="M 327 340 L 320 347 L 330 355 L 336 349 L 327 340"/>
  <path class="p4" d="M 342 342 L 336 349 L 346 357 L 352 352 L 342 342"/>
  <line x1="352" y1="352" x2="346" y2="357"/>
  <path class="p4" d="M 336 349 L 330 355 L 340 364 L 346 357 L 336 349"/>
  <line x1="346" y1="357" x2="340" y2="364"/>
  <path class="p4" d="M 320 347 L 314 354 L 325 362 L 330 355 L 320 347"/>
  <path class="p4" d="M 314 354 L 309 361 L 319 369 L 325 362 L 314 354"/>
  <path class="p4" d="M 330 355 L 325 362 L 335 370 L 340 364 L 330 355"/>
  <line x1="340" y1="364" x2="335" y2="370"/>
  <path class="p4" d="M 325 362 L 319 369 L 330 377 L 335 370 L 325 362"/>
  <line x1="335" y1="370" x2="330" y2="377"/>
  <path class="p4" d="M 309 361 L 304 369 L 314 376 L 319 369 L 309 361"/>
  <path class="p4" d="M 304 369 L 299 377 L 310 383 L 314 376 L 304 369"/>
  <path class="p4" d="M 319 369 L 314 376 L 325 383 L 330 377 L 319 369"/>
  <line x1="330" y1="377" x2="325" y2="383"/>
  <path class="p4" d="M 314 376 L 310 383 L 321 390 L 325 383 L 314 376"/>
  <line x1="325" y1="383" x2="321" y2="390"/>
  <path class="p4" d="M 299 377 L 294 385 L 305 391 L 310 383 L 299 377"/>
  <path class="p4" d="M 294 385 L 289 393 L 301 399 L 305 391 L 294 385"/>
  <path class="p4" d="M 310 383 L 305 391 L 317 397 L 321 390 L 310 383"/>
  <line x1="321" y1="390" x2="317" y2="397"/>
  <path class="p4" d="M 305 391 L 301 399 L 313 405 L 317 397 L 305 391"/>
  <line x1="317" y1="397" x2="313" y2="405"/>
  <path class="p4" d="M 289 393 L 285 401 L 297 407 L 301 399 L 289 393"/>
  <path class="p4" d="M 285 401 L 282 410 L 294 415 L 297 407 L 285 401"/>
  <path class="p4" d="M 301 399 L 297 407 L 309 412 L 313 405 L 301 399"/>
  <line x1="313" y1="405" x2="309" y2="412"/>
  <path class="p4" d="M 297 407 L 294 415 L 306 420 L 309 412 L 297 407"/>
  <line x1="309" y1="412" x2="306" y2="420"/>
  <path class="p4" d="M 282 410 L 278 418 L 291 423 L 294 415 L 282 410"/>
  <path class="p4" d="M 278 418 L 275 427 L 288 431 L 291 423 L 278 418"/>
  <path class="p4" d="M 294 415 L 291 423 L 303 427 L 306 420 L 294 415"/>
  <line x1="306" y1="420" x2="303" y2="427"/>
  <path class="p4" d="M 291 423 L 288 431 L 300 435 L 303 427 L 291 423"/>
  <line x1="303" y1="427" x2="300" y2="435"/>
  <path class="p4" d="M 275 427 L 273 436 L 285 439 L 288 431 L 275 427"/>
  <path class="p4" d="M 273 436 L 270 445 L 283 448 L 285 439 L 273 436"/>
  <path class="p4" d="M 288 431 L 285 439 L 298 443 L 300 435 L 288 431"/>
  <line x1="300" y1="435" x2="298" y2="443"/>
  <path class="p4" d="M 285 439 L 283 448 L 296 451 L 298 443 L 285 439"/>
  <line x1="298" y1="443" x2="296" y2="451"/>
  <path class="p4" d="M 270 445 L 268 454 L 281 456 L 283 448 L 270 445"/>
  <path class="p4" d="M 268 454 L 267 463 L 280 465 L 281 456 L 268 454"/>
  <path class="p4" d="M 283 448 L 281 456 L 294 459 L 296 451 L 283 448"/>
  <line x1="296" y1="451" x2="294" y2="459"/>
  <path class="p4" d="M 281 456 L 280 465 L 293 467 L 294 459 L 281 456"/>
  <line x1="294" y1="459" x2="293" y2="467"/>
  <path class="p4" d="M 267 463 L 265 472 L 278 474 L 280 465 L 267 463"/>
  <path class="p4" d="M 265 472 L 264 481 L 278 482 L 278 474 L 265 472"/>
  <path class="p4" d="M 280 465 L 278 474 L 291 475 L 293 467 L 280 465"/>
  <line x1="293" y1="467" x2="291" y2="475"/>
  <path class="p4" d="M 278 474 L 278 482 L 291 484 L 291 475 L 278 474"/>
  <line x1="291" y1="475" x2="291" y2="484"/>
  <path class="p4" d="M 264 481 L 264 491 L 277 491 L 278 482 L 264 481"/>
  <path class="p4" d="M 264 491 L 264 500 L 277 500 L 277 491 L 264 491"/>
  <path class="p4" d="M 278 482 L 277 491 L 290 492 L 291 484 L 278 482"/>
  <line x1="291" y1="484" x2="290" y2="492"/>
  <path class="p4" d="M 277 491 L 277 500 L 290 500 L 290 492 L 277 491"/>
  <line x1="290" y1="492" x2="290" y2="500"/>
  <path class="p4" d="M 264 500 L 264 509 L 277 509 L 277 500 L 264 500"/>
  <path class="p4" d="M 264 509 L 264 519 L 278 518 L 277 509 L 264 509"/>
  <path class="p4" d="M 277 500 L 277 509 L 290 508 L 290 500 L 277 500"/>
  <line x1="290" y1="500" x2="290" y2="508"/>
  <path class="p4" d="M 277 509 L 278 518 L 291 516 L 290 508 L 277 509"/>
  <line x1="290" y1="508" x2="291" y2="516"/>
  <path class="p4" d="M 264 519 L 265 528 L 278 526 L 278 518 L 264 519"/>
  <path class="p4" d="M 265 528 L 267 537 L 280 535 L 278 526 L 265 528"/>
  <path class="p4" d="M 278 518 L 278 526 L 291 525 L 291 516 L 278 518"/>
  <line x1="291" y1="516" x2="291" y2="525"/>
  <path class="p4" d="M 278 526 L 280 535 L 293 533 L 291 525 L 278 526"/>
  <line x1="291" y1="525" x2="293" y2="533"/>
  <path class="p4" d="M 267 537 L 268 546 L 281 544 L 280 535 L 267 537"/>
  <path class="p4" d="M 268 546 L 270 555 L 283 552 L 281 544 L 268 546"/>
  <path class="p4" d="M 280 535 L 281 544 L 294 541 L 293 533 L 280 535"/>
  <line x1="293" y1="533" x2="294" y2="541"/>
  <path class="p4" d="M 281 544 L 283 552 L 296 549 L 294 541 L 281 544"/>
  <line x1="294" y1="541" x2="296" y2="549"/>
  <path class="p4" d="M 270 555 L 273 564 L 285 561 L 283 552 L 270 555"/>
  <path class="p4" d="M 273 564 L 275 573 L 288 569 L 285 561 L 273 564"/>
  <path class="p4" d="M 283 552 L 285 561 L 298 557 L 296 549 L 283 552"/>
  <line x1="296" y1="549" x2="298" y2="557"/>
  <path class="p4" d="M 285 561 L 288 569 L 300 565 L 298 557 L 285 561"/>
  <line x1="298" y1="557" x2="300" y2="565"/>
  <path class="p4" d="M 275 573 L 278 582 L 291 577 L 288 569 L 275 573"/>
  <path class="p4" d="M 278 582 L 282 590 L 294 585 L 291 577 L 278 582"/>
  <path class="p4" d="M 288 569 L 291 577 L 303 573 L 300 565 L 288 569"/>
  <line x1="300" y1="565" x2="303" y2="573"/>
  <path class="p4" d="M 291 577 L 294 585 L 306 580 L 303 573 L 291 577"/>
  <line x1="303" y1="573" x2="306" y2="580"/>
  <path class="p4" d="M 282 590 L 285 599 L 297 593 L 294 585 L 282 590"/>
  <path class="p4" d="M 285 599 L 289 607 L 301 601 L 297 593 L 285 599"/>
  <path class="p4" d="M 294 585 L 297 593 L 309 588 L 306 580 L 294 585"/>
  <line x1="306" y1="580" x2="309" y2="588"/>
  <path class="p4" d="M 297 593 L 301 601 L 313 595 L 309 588 L 297 593"/>
  <line x1="309" y1="588" x2="313" y2="595"/>
  <path class="p4" d="M 289 607 L 294 615 L 305 609 L 301 601 L 289 607"/>
  <path class="p4" d="M 294 615 L 299 623 L 310 617 L 305 609 L 294 615"/>
  <path class="p4" d="M 301 601 L 305 609 L 317 603 L 313 595 L 301 601"/>
  <line x1="313" y1="595" x2="317" y2="603"/>
  <path class="p4" d="M 305 609 L 310 617 L 321 610 L 317 603 L 305 609"/>
  <line x1="317" y1="603" x2="321" y2="610"/>
  <path class="p4" d="M 299 623 L 304 631 L 314 624 L 310 617 L 299 623"/>
  <path class="p4" d="M 304 631 L 309 639 L 319 631 L 314 624 L 304 631"/>
  <path class="p4" d="M 310 617 L 314 624 L 325 617 L 321 610 L 310 617"/>
  <line x1="321" y1="610" x2="325" y2="617"/>
  <path class="p4" d="M 314 624 L 319 631 L 330 623 L 325 617 L 314 624"/>
  <line x1="325" y1="617" x2="330" y2="623"/>
  <path class="p4" d="M 309 639 L 314 646 L 325 638 L 319 631 L 309 639"/>
  <path class="p4" d="M 314 646 L 320 653 L 330 645 L 325 638 L 314 646"/>
  <path class="p4" d="M 319 631 L 325 638 L 335 630 L 330 623 L 319 631"/>
  <line x1="330" y1="623" x2="335" y2="630"/>
  <path class="p4" d="M 325 638 L 330 645 L 340 636 L 335 630 L 325 638"/>
  <line x1="335" y1="630" x2="340" y2="636"/>
  <path class="p4" d="M 320 653 L 327 660 L 336 651 L 330 645 L 320 653"/>
  <path class="p4" d="M 327 660 L 333 667 L 342 658 L 336 651 L 327 660"/>
  <path class="p4" d="M 330 645 L 336 651 L 346 643 L 340 636 L 330 645"/>
  <line x1="340" y1="636" x2="346" y2="643"/>
  <path class="p4" d="M 336 651 L 342 658 L 352 648 L 346 643 L 336 651"/>
  <line x1="346" y1="643" x2="352" y2="648"/>
  <path class="p4" d="M 333 667 L 340 673 L 349 664 L 342 658 L 333 667"/>
  <path class="p4" d="M 340 673 L 347 680 L 355 670 L 349 664 L 340 673"/>
  <path class="p4" d="M 342 658 L 349 664 L 357 654 L 352 648 L 342 658"/>
  <line x1="352" y1="648" x2="357" y2="654"/>
  <path class="p4" d="M 349 664 L 355 670 L 364 660 L 357 654 L 349 664"/>
  <line x1="357" y1="654" x2="364" y2="660"/>
  <path class="p4" d="M 347 680 L 354 686 L 362 675 L 355 670 L 347 680"/>
  <path class="p4" d="M 354 686 L 361 691 L 369 681 L 362 675 L 354 686"/>
  <path class="p4" d="M 355 670 L 362 675 L 370 665 L 364 660 L 355 670"/>
  <line x1="364" y1="660" x2="370" y2="665"/>
  <path class="p4" d="M 362 675 L 369 681 L 377 670 L 370 665 L 362 675"/>
  <line x1="370" y1="665" x2="377" y2="670"/>
  <path class="p4" d="M 361 691 L 369 696 L 376 686 L 369 681 L 361 691"/>
  <path class="p4" d="M 369 696 L 377 701 L 383 690 L 376 686 L 369 696"/>
  <path class="p4" d="M 369 681 L 376 686 L 383 675 L 377 670 L 369 681"/>
  <line x1="377" y1="670" x2="383" y2="675"/>
  <path class="p4" d="M 376 686 L 383 690 L 390 679 L 383 675 L 376 686"/>
  <line x1="383" y1="675" x2="390" y2="679"/>
  <path class="p4" d="M 377 701 L 385 706 L 391 695 L 383 690 L 377 701"/>
  <path class="p4" d="M 385 706 L 393 711 L 399 699 L 391 695 L 385 706"/>
  <path class="p4" d="M 383 690 L 391 695 L 397 683 L 390 679 L 383 690"/>
  <line x1="390" y1="679" x2="397" y2="683"/>
  <path class="p4" d="M 391 695 L 399 699 L 405 687 L 397 683 L 391 695"/>
  <line x1="397" y1="683" x2="405" y2="687"/>
  <path class="p4" d="M 393 711 L 401 715 L 407 703 L 399 699 L 393 711"/>
  <path class="p4" d="M 401 715 L 410 718 L 415 706 L 407 703 L 401 715"/>
  <path class="p4" d="M 399 699 L 407 703 L 412 691 L 405 687 L 399 699"/>
  <line x1="405" y1="687" x2="412" y2="691"/>
  <path class="p4" d="M 407 703 L 415 706 L 420 694 L 412 691 L 407 703"/>
  <line x1="412" y1="691" x2="420" y2="694"/>
  <path class="p4" d="M 410 718 L 418 722 L 423 709 L 415 706 L 410 718"/>
  <path class="p4" d="M 418 722 L 427 725 L 431 712 L 423 709 L 418 722"/>
  <path class="p4" d="M 415 706 L 423 709 L 427 697 L 420 694 L 415 706"/>
  <line x1="420" y1="694" x2="427" y2="697"/>
  <path class="p4" d="M 423 709 L 431 712 L 435 700 L 427 697 L 423 709"/>
  <line x1="427" y1="697" x2="435" y2="700"/>
  <path class="p4" d="M 427 725 L 436 727 L 439 715 L 431 712 L 427 725"/>
  <path class="p4" d="M 436 727 L 445 730 L 448 717 L 439 715 L 436 727"/>
  <path class="p4" d="M 431 712 L 439 715 L 443 702 L 435 700 L 431 712"/>
  <line x1="435" y1="700" x2="443" y2="702"/>
  <path class="p4" d="M 439 715 L 448 717 L 451 704 L 443 702 L 439 715"/>
  <line x1="443" y1="702" x2="451" y2="704"/>
  <path class="p4" d="M 445 730 L 454 732 L 456 719 L 448 717 L 445 730"/>
  <path class="p4" d="M 454 732 L 463 733 L 465 720 L 456 719 L 454 732"/>
  <path class="p4" d="M 448 717 L 456 719 L 459 706 L 451 704 L 448 717"/>
  <line x1="451" y1="704" x2="459" y2="706"/>
  <path class="p4" d="M 456 719 L 465 720 L 467 707 L 459 706 L 456 719"/>
  <line x1="459" y1="706" x2="467" y2="707"/>
  <path class="p4" d="M 463 733 L 472 735 L 474 722 L 465 720 L 463 733"/>
  <path class="p4" d="M 472 735 L 481 736 L 482 722 L 474 722 L 472 735"/>
  <path class="p4" d="M 465 720 L 474 722 L 475 709 L 467 707 L 465 720"/>
  <line x1="467" y1="707" x2="475" y2="709"/>
  <path class="p4" d="M 474 722 L 482 722 L 484 709 L 475 709 L 474 722"/>
  <line x1="475" y1="709" x2="484" y2="709"/>
  <path class="p4" d="M 481 736 L 491 736 L 491 723 L 482 722 L 481 736"/>
  <path class="p4" d="M 491 736 L 500 736 L 500 723 L 491 723 L 491 736"/>
  <path class="p4" d="M 482 722 L 491 723 L 492 710 L 484 709 L 482 722"/>
  <line x1="484" y1="709" x2="492" y2="710"/>
  <path class="p4" d="M 491 723 L 500 723 L 500 710 L 492 710 L 491 723"/>
  <line x1="492" y1="710" x2="500" y2="710"/>
  <path class="p4" d="M 500 736 L 509 736 L 509 723 L 500 723 L 500 736"/>
  <path class="p4" d="M 509 736 L 519 736 L 518 722 L 509 723 L 509 736"/>
  <path class="p4" d="M 500 723 L 509 723 L 508 710 L 500 710 L 500 723"/>
  <line x1="500" y1="710" x2="508" y2="710"/>
  <path class="p4" d="M 509 723 L 518 722 L 516 709 L 508 710 L 509 723"/>
  <line x1="508" y1="710" x2="516" y2="709"/>
  <path class="p4" d="M 519 736 L 528 735 L 526 722 L 518 722 L 519 736"/>
  <path class="p4" d="M 528 735 L 537 733 L 535 720 L 526 722 L 528 735"/>
  <path class="p4" d="M 518 722 L 526 722 L 525 709 L 516 709 L 518 722"/>
  <line x1="516" y1="709" x2="525" y2="709"/>
  <path class="p4" d="M 526 722 L 535 720 L 533 707 L 525 709 L 526 722"/>
  <line x1="525" y1="709" x2="533" y2="707"/>
  <path class="p4" d="M 537 733 L 546 732 L 544 719 L 535 720 L 537 733"/>
  <path class="p4" d="M 546 732 L 555 730 L 552 717 L 544 719 L 546 732"/>
  <path class="p4" d="M 535 720 L 544 719 L 541 706 L 533 707 L 535 720"/>
  <line x1="533" y1="707" x2="541" y2="706"/>
  <path class="p4" d="M 544 719 L 552 717 L 549 704 L 541 706 L 544 719"/>
  <line x1="541" y1="706" x2="549" y2="704"/>
  <path class="p4" d="M 555 730 L 564 727 L 561 715 L 552 717 L 555 730"/>
  <path class="p4" d="M 564 727 L 573 725 L 569 712 L 561 715 L 564 727"/>
  <path class="p4" d="M 552 717 L 561 715 L 557 702 L 549 704 L 552 717"/>
  <line x1="549" y1="704" x2="557" y2="702"/>
  <path class="p4" d="M 561 715 L 569 712 L 565 700 L 557 702 L 561 715"/>
  <line x1="557" y1="702" x2="565" y2="700"/>
  <path class="p4" d="M 573 725 L 582 722 L 577 709 L 569 712 L 573 725"/>
  <path class="p4" d="M 582 722 L 590 718 L 585 706 L 577 709 L 582 722"/>
  <path class="p4" d="M 569 712 L 577 709 L 573 697 L 565 700 L 569 712"/>
  <line x1="565" y1="700" x2="573" y2="697"/>
  <path class="p4" d="M 577 709 L 585 706 L 580 694 L 573 697 L 577 709"/>
  <line x1="573" y1="697" x2="580" y2="694"/>
  <path class="p4" d="M 590 718 L 599 715 L 593 703 L 585 706 L 590 718"/>
  <path class="p4" d="M 599 715 L 607 711 L 601 699 L 593 703 L 599 715"/>
  <path class="p4" d="M 585 706 L 593 703 L 588 691 L 580 694 L 585 706"/>
  <line x1="580" y1="694" x2="588" y2="691"/>
  <path class="p4" d="M 593 703 L 601 699 L 595 687 L 588 691 L 593 703"/>
  <line x1="588" y1="691" x2="595" y2="687"/>
  <path class="p4" d="M 607 711 L 615 706 L 609 695 L 601 699 L 607 711"/>
  <path class="p4" d="M 615 706 L 623 701 L 617 690 L 609 695 L 615 706"/>
  <path class="p4" d="M 601 699 L 609 695 L 603 683 L 595 687 L 601 699"/>
  <line x1="595" y1="687" x2="603" y2="683"/>
  <path class="p4" d="M 609 695 L 617 690 L 610 679 L 603 683 L 609 695"/>
  <line x1="603" y1="683" x2="610" y2="679"/>
  <path class="p4" d="M 623 701 L 631 696 L 624 686 L 617 690 L 623 701"/>
  <path class="p4" d="M 631 696 L 639 691 L 631 681 L 624 686 L 631 696"/>
  <path class="p4" d="M 617 690 L 624 686 L 617 675 L 610 679 L 617 690"/>
  <line x1="610" y1="679" x2="617" y2="675"/>
  <path class="p4" d="M 624 686 L 631 681 L 623 670 L 617 675 L 624 686"/>
  <line x1="617" y1="675" x2="623" y2="670"/>
  <path class="p4" d="M 639 691 L 646 686 L 638 675 L 631 681 L 639 691"/>
  <path class="p4" d="M 646 686 L 653 680 L 645 670 L 638 675 L 646 686"/>
  <path class="p4" d="M 631 681 L 638 675 L 630 665 L 623 670 L 631 681"/>
  <line x1="623" y1="670" x2="630" y2="665"/>
  <path class="p4" d="M 638 675 L 645 670 L 636 660 L 630 665 L 638 675"/>
  <line x1="630" y1="665" x2="636" y2="660"/>
  <path class="p4" d="M 653 680 L 660 673 L 651 664 L 645 670 L 653 680"/>
  <path class="p4" d="M 660 673 L 667 667 L 658 658 L 651 664 L 660 673"/>
  <path class="p4" d="M 645 670 L 651 664 L 643 654 L 636 660 L 645 670"/>
  <line x1="636" y1="660" x2="643" y2="654"/>
  <path class="p4" d="M 651 664 L 658 658 L 648 648 L 643 654 L 651 664"/>
  <line x1="643" y1="654" x2="648" y2="648"/>
  <path class="p4" d="M 667 667 L 673 660 L 664 651 L 658 658 L 667 667"/>
  <path class="p4" d="M 673 660 L 680 653 L 670 645 L 664 651 L 673 660"/>
  <path class="p4" d="M 658 658 L 664 651 L 654 643 L 648 648 L 658 658"/>
  <line x1="648" y1="648" x2="654" y2="643"/>
  <path class="p4" d="M 664 651 L 670 645 L 660 636 L 654 643 L 664 651"/>
  <line x1="654" y1="643" x2="660" y2="636"/>
  <path class="p4" d="M 680 653 L 686 646 L 675 638 L 670 645 L 680 653"/>
  <path class="p4" d="M 686 646 L 691 639 L 681 631 L 675 638 L 686 646"/>
  <path class="p4" d="M 670 645 L 675 638 L 665 630 L 660 636 L 670 645"/>
  <line x1="660" y1="636" x2="665" y2="630"/>
  <path class="p4" d="M 675 638 L 681 631 L 670 623 L 665 630 L 675 638"/>
  <line x1="665" y1="630" x2="670" y2="623"/>
  <path class="p4" d="M 691 639 L 696 631 L 686 624 L 681 631 L 691 639"/>
  <path class="p4" d="M 696 631 L 701 623 L 690 617 L 686 624 L 696 631"/>
  <path class="p4" d="M 681 631 L 686 624 L 675 617 L 670 623 L 681 631"/>
  <line x1="670" y1="623" x2="675" y2="617"/>
  <path class="p4" d="M 686 624 L 690 617 L 679 610 L 675 617 L 686 624"/>
  <line x1="675" y1="617" x2="679" y2="610"/>
  <path class="p4" d="M 701 623 L 706 615 L 695 609 L 690 617 L 701 623"/>
  <path class="p4" d="M 706 615 L 711 607 L 699 601 L 695 609 L 706 615"/>
  <path class="p4" d="M 690 617 L 695 609 L 683 603 L 679 610 L 690 617"/>
  <line x1="679" y1="610" x2="683" y2="603"/>
  <path class="p4" d="M 695 609 L 699 601 L 687 595 L 683 603 L 695 609"/>
  <line x1="683" y1="603" x2="687" y2="595"/>
  <path class="p4" d="M 711 607 L 715 599 L 703 593 L 699 601 L 711 607"/>
  <path class="p4" d="M 715 599 L 718 590 L 706 585 L 703 593 L 715 599"/>
  <path class="p4" d="M 699 601 L 703 593 L 691 588 L 687 595 L 699 601"/>
  <line x1="687" y1="595" x2="691" y2="588"/>
  <path class="p4" d="M 703 593 L 706 585 L 694 580 L 691 588 L 703 593"/>
  <line x1="691" y1="588" x2="694" y2="580"/>
  <path class="p4" d="M 718 590 L 722 582 L 709 577 L 706 585 L 718 590"/>
  <path class="p4" d="M 722 582 L 725 573 L 712 569 L 709 577 L 722 582"/>
  <path class="p4" d="M 706 585 L 709 577 L 697 573 L 694 580 L 706 585"/>
  <line x1="694" y1="580" x2="697" y2="573"/>
  <path class="p4" d="M 709 577 L 712 569 L 700 565 L 697 573 L 709 577"/>
  <line x1="697" y1="573" x2="700" y2="565"/>
  <path class="p4" d="M 725 573 L 727 564 L 715 561 L 712 569 L 725 573"/>
  <path class="p4" d="M 727 564 L 730 555 L 717 552 L 715 561 L 727 564"/>
  <path class="p4" d="M 712 569 L 715 561 L 702 557 L 700 565 L 712 569"/>
  <line x1="700" y1="565" x2="702" y2="557"/>
  <path class="p4" d="M 715 561 L 717 552 L 704 549 L 702 557 L 715 561"/>
  <line x1="702" y1="557" x2="704" y2="549"/>
  <path class="p4" d="M 730 555 L 732 546 L 719 544 L 717 552 L 730 555"/>
  <path class="p4" d="M 732 546 L 733 537 L 720 535 L 719 544 L 732 546"/>
  <path class="p4" d="M 717 552 L 719 544 L 706 541 L 704 549 L 717 552"/>
  <line x1="704" y1="549" x2="706" y2="541"/>
  <path class="p4" d="M 719 544 L 720 535 L 707 533 L 706 541 L 719 544"/>
  <line x1="706" y1="541" x2="707" y2="533"/>
  <path class="p4" d="M 733 537 L 735 528 L 722 526 L 720 535 L 733 537"/>
  <path class="p4" d="M 735 528 L 736 519 L 722 518 L 722 526 L 735 528"/>
  <path class="p4" d="M 720 535 L 722 526 L 709 525 L 707 533 L 720 535"/>
  <line x1="707" y1="533" x2="709" y2="525"/>
  <path class="p4" d="M 722 526 L 722 518 L 709 516 L 709 525 L 722 526"/>
  <line x1="709" y1="525" x2="709" y2="516"/>
  <path class="p4" d="M 736 519 L 736 509 L 723 509 L 722 518 L 736 519"/>
  <path class="p4" d="M 736 509 L 736 500 L 723 500 L 723 509 L 736 509"/>
  <path class="p4" d="M 722 518 L 723 509 L 710 508 L 709 516 L 722 518"/>
  <line x1="709" y1="516" x2="710" y2="508"/>
  <path class="p4" d="M 723 509 L 723 500 L 710 500 L 710 508 L 723 509"/>
  <line x1="710" y1="508" x2="710" y2="500"/>

</svg>